<svg width="726" height="203" viewBox="0 0 726 203" fill="none" xmlns="http://www.w3.org/2000/svg">
<path d="M269.231 151L215.378 20.0098H247.104L267.543 74.8408L280.873 111.543H281.584L294.647 74.8408L315.176 20.0098H347.168L293.759 151H269.231ZM357.743 151V55.3789H385.825V151H357.743ZM371.873 44.4482C367.074 44.4482 363.016 42.7894 359.698 39.4717C356.381 36.154 354.722 32.1253 354.722 27.3857C354.722 22.5277 356.381 18.4694 359.698 15.2109C363.016 11.8932 367.074 10.2344 371.873 10.2344C376.672 10.2344 380.701 11.8932 383.959 15.2109C387.277 18.4694 388.936 22.5277 388.936 27.3857C388.936 32.1253 387.277 36.154 383.959 39.4717C380.701 42.7894 376.672 44.4482 371.873 44.4482ZM404.398 188.324V55.3789H431.059V64.8877H434.702L430.17 75.1074V131.094L436.835 141.936H432.48V188.324H404.398ZM459.318 152.422C451.261 152.422 444.033 150.171 437.635 145.668C431.236 141.106 426.171 135.034 422.438 127.45C418.706 119.867 416.81 111.484 416.751 102.301C416.81 93.3548 418.617 85.2383 422.172 77.9512C425.727 70.6048 430.614 64.7396 436.835 60.3555C443.115 55.9714 450.343 53.7793 458.519 53.7793C465.687 53.7793 472.53 55.6455 479.047 59.3779C485.623 63.1104 490.955 68.6497 495.043 75.9961C499.131 83.3424 501.116 92.4958 500.997 103.456C501.056 111.75 499.901 118.978 497.531 125.14C495.161 131.242 491.962 136.307 487.934 140.336C483.905 144.365 479.402 147.386 474.426 149.4C469.449 151.415 464.413 152.422 459.318 152.422ZM452.742 128.961C456.889 128.902 460.533 127.806 463.673 125.673C466.813 123.54 469.271 120.519 471.049 116.608C472.826 112.698 473.685 108.136 473.626 102.923C473.685 97.5908 472.797 93.029 470.96 89.2373C469.183 85.3864 466.665 82.4538 463.406 80.4395C460.148 78.3659 456.415 77.3587 452.209 77.418C448.24 77.3587 444.685 78.3363 441.545 80.3506C438.405 82.3649 435.917 85.2975 434.08 89.1484C432.243 92.9401 431.325 97.5316 431.325 102.923C431.325 108.136 432.243 112.698 434.08 116.608C435.976 120.519 438.523 123.54 441.723 125.673C444.922 127.806 448.595 128.902 452.742 128.961ZM514.594 188.324V55.3789H541.254V64.8877H544.897L540.365 75.1074V131.094L547.03 141.936H542.676V188.324H514.594ZM569.514 152.422C561.456 152.422 554.229 150.171 547.83 145.668C541.432 141.106 536.366 135.034 532.634 127.45C528.901 119.867 527.006 111.484 526.946 102.301C527.006 93.3548 528.812 85.2383 532.367 77.9512C535.922 70.6048 540.81 64.7396 547.03 60.3555C553.31 55.9714 560.538 53.7793 568.714 53.7793C575.882 53.7793 582.725 55.6455 589.242 59.3779C595.818 63.1104 601.15 68.6497 605.238 75.9961C609.326 83.3424 611.311 92.4958 611.192 103.456C611.252 111.75 610.096 118.978 607.727 125.14C605.357 131.242 602.158 136.307 598.129 140.336C594.1 144.365 589.598 147.386 584.621 149.4C579.645 151.415 574.609 152.422 569.514 152.422ZM562.938 128.961C567.085 128.902 570.728 127.806 573.868 125.673C577.008 123.54 579.467 120.519 581.244 116.608C583.021 112.698 583.881 108.136 583.821 102.923C583.881 97.5908 582.992 93.029 581.155 89.2373C579.378 85.3864 576.86 82.4538 573.602 80.4395C570.343 78.3659 566.611 77.3587 562.404 77.418C558.435 77.3587 554.88 78.3363 551.74 80.3506C548.6 82.3649 546.112 85.2975 544.275 89.1484C542.439 92.9401 541.521 97.5316 541.521 102.923C541.521 108.136 542.439 112.698 544.275 116.608C546.171 120.519 548.719 123.54 551.918 125.673C555.117 127.806 558.79 128.902 562.938 128.961ZM639.985 189.746C636.371 189.746 632.728 189.391 629.055 188.68C625.382 188.028 622.301 187.287 619.812 186.458L629.499 163.975C630.862 164.626 632.372 165.16 634.031 165.574C635.69 165.989 637.26 166.196 638.741 166.196C641.703 166.196 644.073 165.574 645.851 164.33C647.628 163.145 648.961 161.694 649.85 159.976C650.738 158.257 651.39 156.688 651.805 155.266L656.07 140.78L654.026 155.443L613.236 55.3789H642.74L660.78 108.521L665.224 122.474H665.935L669.934 108.521L686.641 55.3789H715.967L675.621 161.664C674.555 164.389 673.281 167.381 671.8 170.64C670.319 173.898 668.304 176.949 665.757 179.793C663.209 182.696 659.862 185.066 655.715 186.902C651.627 188.798 646.384 189.746 639.985 189.746Z" fill="#FFFFFE"/>
<path d="M42.4421 62.1818C37.6559 70.3467 34.9091 79.852 34.9091 90C34.9091 105.871 41.6237 120.172 52.3636 130.225V180H39.2727C17.583 180 5.27154e-08 162.417 0 140.727V62.1818H42.4421Z" fill="#2CB67D"/>
<path d="M180 140.727C180 162.417 162.417 180 140.727 180H61.0909V136.901C69.4949 142.092 79.3965 145.091 90 145.091C109.36 145.091 126.384 135.102 136.209 120H180V140.727Z" fill="#7F5AF0"/>
<path d="M140.727 0C162.417 0 180 17.583 180 39.2727V111.273H140.833C143.575 104.727 145.091 97.5408 145.091 90C145.091 70.6398 135.103 53.6147 120 43.7898V0H140.727Z" fill="#2CB67D"/>
<path d="M111.273 39.1673C104.727 36.4249 97.5408 34.9091 90 34.9091C73.5975 34.9091 58.872 42.0798 48.7798 53.4545H0V39.2727C0 17.583 17.583 5.27122e-08 39.2727 0H111.273V39.1673Z" fill="#7F5AF0"/>
<path d="M89.9996 49.6364C112.292 49.6364 130.364 67.7076 130.364 89.9996C130.364 112.292 112.292 130.364 89.9996 130.364C67.7076 130.364 49.6364 112.292 49.6364 89.9996C49.6365 67.7077 67.7077 49.6365 89.9996 49.6364Z" stroke="#FFFFFE" stroke-width="12"/>
</svg>
