<svg width="165" height="165" viewBox="0 0 165 165" fill="none" xmlns="http://www.w3.org/2000/svg">
<path d="M38.9053 57C34.5179 64.4845 32 73.1977 32 82.5C32 97.0489 38.155 110.158 48 119.373V165H36C16.1178 165 4.83224e-08 148.882 0 129V57H38.9053Z" fill="#2CB67D"/>
<path d="M165 129C165 148.882 148.882 165 129 165H56V125.492C63.7036 130.251 72.7801 133 82.5 133C100.247 133 115.852 123.844 124.858 110H165V129Z" fill="#7F5AF0"/>
<path d="M129 0C148.882 0 165 16.1178 165 36V102H129.097C131.61 96.0002 133 89.4124 133 82.5C133 64.7532 123.844 49.1468 110 40.1406V0H129Z" fill="#2CB67D"/>
<path d="M102 35.9033C96.0002 33.3895 89.4124 32 82.5 32C67.4644 32 53.966 38.5732 44.7148 49H0V36C0 16.1178 16.1178 4.83195e-08 36 0H102V35.9033Z" fill="#7F5AF0"/>
<path d="M82.5 46C102.658 46 119 62.3416 119 82.5C119 102.658 102.658 119 82.5 119C62.3416 119 46 102.658 46 82.5C46 62.3416 62.3416 46 82.5 46Z" stroke="#FFFFFE" stroke-width="12"/>
</svg>
